<svg width="20" height="20" viewBox="0 0 20 20" fill="none" xmlns="http://www.w3.org/2000/svg">
<path d="M17.85 1.6001H2.84607C2.15857 1.6001 1.59998 2.1665 1.59998 2.86182V17.8384C1.59998 18.5337 2.15857 19.1001 2.84607 19.1001H17.85C18.5375 19.1001 19.1 18.5337 19.1 17.8384V2.86182C19.1 2.1665 18.5375 1.6001 17.85 1.6001ZM6.88904 16.6001H4.29529V8.24854H6.89294V16.6001H6.88904ZM5.59216 7.10791C4.76013 7.10791 4.08826 6.43213 4.08826 5.604C4.08826 4.77588 4.76013 4.1001 5.59216 4.1001C6.42029 4.1001 7.09607 4.77588 7.09607 5.604C7.09607 6.43604 6.42419 7.10791 5.59216 7.10791ZM16.6117 16.6001H14.0179V12.5376C14.0179 11.5688 13.9984 10.3228 12.6703 10.3228C11.3187 10.3228 11.1117 11.3774 11.1117 12.4673V16.6001H8.51794V8.24854H11.0062V9.38916H11.0414C11.389 8.73291 12.2367 8.0415 13.4984 8.0415C16.1234 8.0415 16.6117 9.77197 16.6117 12.022V16.6001Z" fill="#B0ACBA"/>
</svg>
