<svg width="25" height="25" viewBox="0 0 25 25" fill="none" xmlns="http://www.w3.org/2000/svg">
<path d="M3.90625 12.5C3.90601 10.9913 4.30293 9.50923 5.05709 8.20263C5.81125 6.89603 6.89609 5.81098 8.20254 5.05656C9.509 4.30214 10.991 3.90494 12.4997 3.90488C14.0083 3.90482 15.4904 4.30191 16.7969 5.05623C16.9762 5.15819 17.1886 5.18508 17.3877 5.13103C17.5868 5.07698 17.7564 4.94637 17.8596 4.76771C17.9627 4.58904 17.991 4.37683 17.9383 4.17738C17.8856 3.97793 17.7561 3.80744 17.5781 3.7031C15.642 2.58526 13.3911 2.13751 11.1745 2.42929C8.95794 2.72107 6.89959 3.73607 5.31868 5.31689C3.73776 6.8977 2.72262 8.95599 2.4307 11.1725C2.13878 13.3891 2.58639 15.64 3.7041 17.5762C4.82182 19.5125 6.54718 21.0258 8.61262 21.8815C10.6781 22.7372 12.9681 22.8875 15.1277 22.3091C17.2872 21.7307 19.1956 20.4558 20.5568 18.6823C21.918 16.9088 22.656 14.7357 22.6562 12.5C22.6562 12.2928 22.5739 12.0941 22.4274 11.9475C22.2809 11.801 22.0822 11.7187 21.875 11.7187C21.6678 11.7187 21.4691 11.801 21.3226 11.9475C21.1761 12.0941 21.0938 12.2928 21.0938 12.5C21.0938 14.7792 20.1883 16.965 18.5767 18.5767C16.9651 20.1883 14.7792 21.0937 12.5 21.0937C10.2208 21.0937 8.03494 20.1883 6.4233 18.5767C4.81166 16.965 3.90625 14.7792 3.90625 12.5Z" fill="#F4701D"/>
<path d="M23.9906 5.24064C24.0633 5.168 24.1209 5.08176 24.1602 4.98686C24.1995 4.89195 24.2197 4.79024 24.2197 4.68751C24.2197 4.58479 24.1995 4.48307 24.1602 4.38816C24.1209 4.29326 24.0633 4.20702 23.9906 4.13439C23.918 4.06175 23.8318 4.00413 23.7369 3.96482C23.6419 3.92551 23.5402 3.90527 23.4375 3.90527C23.3348 3.90527 23.2331 3.92551 23.1382 3.96482C23.0432 4.00413 22.957 4.06175 22.8844 4.13439L12.5 14.5203L8.36563 10.3844C8.29299 10.3117 8.20676 10.2541 8.11185 10.2148C8.01695 10.1755 7.91523 10.1553 7.8125 10.1553C7.70978 10.1553 7.60806 10.1755 7.51315 10.2148C7.41825 10.2541 7.33202 10.3117 7.25938 10.3844C7.18674 10.457 7.12912 10.5433 7.08981 10.6382C7.0505 10.7331 7.03027 10.8348 7.03027 10.9375C7.03027 11.0402 7.0505 11.142 7.08981 11.2369C7.12912 11.3318 7.18674 11.418 7.25938 11.4906L11.9469 16.1781C12.0194 16.2509 12.1057 16.3086 12.2006 16.348C12.2955 16.3874 12.3972 16.4077 12.5 16.4077C12.6028 16.4077 12.7045 16.3874 12.7994 16.348C12.8943 16.3086 12.9806 16.2509 13.0531 16.1781L23.9906 5.24064Z" fill="#FE790F"/>
</svg>
