<svg width="12" height="12" viewBox="0 0 12 12" fill="none" xmlns="http://www.w3.org/2000/svg">
<g clip-path="url(#clip0_6_31)">
<path d="M12 6.03674C12 2.70224 9.3135 -0.000762939 6 -0.000762939C2.685 -1.29394e-05 -0.00149536 2.70224 -0.00149536 6.03749C-0.00149536 9.05024 2.193 11.5477 5.061 12.0007V7.78199H3.5385V6.03749H5.0625V4.70624C5.0625 3.19349 5.95875 2.35799 7.329 2.35799C7.986 2.35799 8.67225 2.47574 8.67225 2.47574V3.96074H7.9155C7.17075 3.96074 6.93825 4.42649 6.93825 4.90424V6.03674H8.60175L8.33625 7.78124H6.9375V12C9.8055 11.547 12 9.04949 12 6.03674Z" fill="#B0ACBA"/>
</g>
<defs>
<clipPath id="clip0_6_31">
<rect width="12" height="12" fill="white"/>
</clipPath>
</defs>
</svg>
