<svg width="25" height="25" viewBox="0 0 25 25" fill="none" xmlns="http://www.w3.org/2000/svg">
<path fill-rule="evenodd" clip-rule="evenodd" d="M3.125 19.5312C3.125 19.324 3.20731 19.1253 3.35382 18.9788C3.50034 18.8323 3.69905 18.75 3.90625 18.75H21.0938C21.301 18.75 21.4997 18.8323 21.6462 18.9788C21.7927 19.1253 21.875 19.324 21.875 19.5312C21.875 19.7385 21.7927 19.9372 21.6462 20.0837C21.4997 20.2302 21.301 20.3125 21.0938 20.3125H3.90625C3.69905 20.3125 3.50034 20.2302 3.35382 20.0837C3.20731 19.9372 3.125 19.7385 3.125 19.5312ZM3.125 14.8438C3.125 14.6365 3.20731 14.4378 3.35382 14.2913C3.50034 14.1448 3.69905 14.0625 3.90625 14.0625H21.0938C21.301 14.0625 21.4997 14.1448 21.6462 14.2913C21.7927 14.4378 21.875 14.6365 21.875 14.8438C21.875 15.051 21.7927 15.2497 21.6462 15.3962C21.4997 15.5427 21.301 15.625 21.0938 15.625H3.90625C3.69905 15.625 3.50034 15.5427 3.35382 15.3962C3.20731 15.2497 3.125 15.051 3.125 14.8438ZM3.125 10.1562C3.125 9.94905 3.20731 9.75034 3.35382 9.60382C3.50034 9.45731 3.69905 9.375 3.90625 9.375H21.0938C21.301 9.375 21.4997 9.45731 21.6462 9.60382C21.7927 9.75034 21.875 9.94905 21.875 10.1562C21.875 10.3635 21.7927 10.5622 21.6462 10.7087C21.4997 10.8552 21.301 10.9375 21.0938 10.9375H3.90625C3.69905 10.9375 3.50034 10.8552 3.35382 10.7087C3.20731 10.5622 3.125 10.3635 3.125 10.1562ZM3.125 5.46875C3.125 5.26155 3.20731 5.06284 3.35382 4.91632C3.50034 4.76981 3.69905 4.6875 3.90625 4.6875H21.0938C21.301 4.6875 21.4997 4.76981 21.6462 4.91632C21.7927 5.06284 21.875 5.26155 21.875 5.46875C21.875 5.67595 21.7927 5.87466 21.6462 6.02118C21.4997 6.16769 21.301 6.25 21.0938 6.25H3.90625C3.69905 6.25 3.50034 6.16769 3.35382 6.02118C3.20731 5.87466 3.125 5.67595 3.125 5.46875Z" fill="#FE6A12"/>
</svg>
