<svg width="12" height="12" viewBox="0 0 12 12" fill="none" xmlns="http://www.w3.org/2000/svg">
<g clip-path="url(#clip0_39_17)">
<path d="M10.71 0.959991H1.70765C1.29515 0.959991 0.959991 1.29984 0.959991 1.71702V10.703C0.959991 11.1201 1.29515 11.46 1.70765 11.46H10.71C11.1225 11.46 11.46 11.1201 11.46 10.703V1.71702C11.46 1.29984 11.1225 0.959991 10.71 0.959991ZM4.13343 9.95999H2.57718V4.94905H4.13577V9.95999H4.13343ZM3.3553 4.26468C2.85609 4.26468 2.45296 3.85921 2.45296 3.36234C2.45296 2.86546 2.85609 2.45999 3.3553 2.45999C3.85218 2.45999 4.25765 2.86546 4.25765 3.36234C4.25765 3.86155 3.85452 4.26468 3.3553 4.26468ZM9.96702 9.95999H8.41077V7.52249C8.41077 6.94124 8.39905 6.19359 7.60218 6.19359C6.79124 6.19359 6.66702 6.8264 6.66702 7.4803V9.95999H5.11077V4.94905H6.60374V5.63343H6.62484C6.83343 5.23968 7.34202 4.82484 8.09905 4.82484C9.67405 4.82484 9.96702 5.86312 9.96702 7.21312V9.95999Z" fill="#B0ACBA"/>
</g>
<defs>
<clipPath id="clip0_39_17">
<rect width="12" height="12" fill="white"/>
</clipPath>
</defs>
</svg>
