<svg width="12" height="12" viewBox="0 0 12 12" fill="none" xmlns="http://www.w3.org/2000/svg">
<g clip-path="url(#clip0_45_2)">
<path fill-rule="evenodd" clip-rule="evenodd" d="M1.41368 0.383391C1.54491 0.252357 1.70249 0.150709 1.87597 0.0851831C2.04946 0.0196569 2.23489 -0.00825131 2.41998 0.00330785C2.60507 0.014867 2.78559 0.0656296 2.94957 0.152232C3.11356 0.238834 3.25727 0.359298 3.37118 0.505641L4.71743 2.23514C4.96418 2.55239 5.05118 2.96564 4.95368 3.35564L4.54343 4.99814C4.52236 5.08322 4.52358 5.17229 4.54697 5.25676C4.57035 5.34124 4.61511 5.41825 4.67693 5.48039L6.51968 7.32314C6.58189 7.38508 6.65903 7.42992 6.74365 7.4533C6.82826 7.47669 6.91749 7.47784 7.00268 7.45664L8.64443 7.04639C8.83691 6.99855 9.03773 6.99495 9.2318 7.03587C9.42587 7.07679 9.60814 7.16116 9.76493 7.28264L11.4944 8.62814C12.1162 9.11189 12.1732 10.0306 11.6167 10.5864L10.8412 11.3619C10.2862 11.9169 9.45668 12.1606 8.68342 11.8884C6.70393 11.1928 4.90683 10.0597 3.42593 8.57339C1.93971 7.0927 0.80659 5.29587 0.110926 3.31664C-0.160574 2.54414 0.0831759 1.71389 0.638176 1.15889L1.41368 0.383391Z" fill="#B0ACBA"/>
</g>
<defs>
<clipPath id="clip0_45_2">
<rect width="12" height="12" fill="white"/>
</clipPath>
</defs>
</svg>
