<svg width="12" height="12" viewBox="0 0 12 12" fill="none" xmlns="http://www.w3.org/2000/svg">
<g clip-path="url(#clip0_39_15)">
<path d="M10.125 0.75H1.875C1.25391 0.75 0.75 1.25391 0.75 1.875V10.125C0.75 10.7461 1.25391 11.25 1.875 11.25H10.125C10.7461 11.25 11.25 10.7461 11.25 10.125V1.875C11.25 1.25391 10.7461 0.75 10.125 0.75ZM8.97891 4.47188C8.98359 4.5375 8.98359 4.60547 8.98359 4.67109C8.98359 6.70312 7.43672 9.04453 4.61016 9.04453C3.73828 9.04453 2.92969 8.79141 2.25 8.35547C2.37422 8.36953 2.49375 8.37422 2.62031 8.37422C3.33984 8.37422 4.00078 8.13047 4.52812 7.71797C3.85312 7.70391 3.28594 7.26094 3.09141 6.65156C3.32812 6.68672 3.54141 6.68672 3.78516 6.62344C3.08203 6.48047 2.55469 5.86172 2.55469 5.11406V5.09531C2.75859 5.21016 2.99766 5.28047 3.24844 5.28984C3.0376 5.1496 2.86476 4.95934 2.74534 4.73605C2.62593 4.51276 2.56365 4.26338 2.56406 4.01016C2.56406 3.72422 2.63906 3.46172 2.77266 3.23438C3.52969 4.16719 4.66641 4.77656 5.94141 4.84219C5.72344 3.79922 6.50391 2.95312 7.44141 2.95312C7.88438 2.95312 8.28281 3.13828 8.56406 3.43828C8.91094 3.37266 9.24375 3.24375 9.53906 3.06797C9.42422 3.42422 9.18281 3.72422 8.86406 3.91406C9.17344 3.88125 9.47344 3.79453 9.75 3.675C9.54141 3.98203 9.27891 4.25391 8.97891 4.47188Z" fill="#B0ACBA"/>
</g>
<defs>
<clipPath id="clip0_39_15">
<rect width="12" height="12" fill="white"/>
</clipPath>
</defs>
</svg>
